<mxfile host="app.diagrams.net" modified="2023-09-25T22:43:01.654Z" agent="Mozilla/5.0 (Windows NT 10.0; Win64; x64; rv:109.0) Gecko/20100101 Firefox/117.0" etag="aZ5_RYaoV9OfYp0Kyi9p" version="21.8.2" type="device">
  <diagram name="Page-1" id="UYMl6Voc0w_X617_PK91">
    <mxGraphModel dx="1257" dy="497" grid="0" gridSize="10" guides="1" tooltips="1" connect="1" arrows="1" fold="1" page="1" pageScale="1" pageWidth="850" pageHeight="1100" math="0" shadow="0">
      <root>
        <mxCell id="0" />
        <mxCell id="1" parent="0" />
        <mxCell id="3FPMqVNz-MOyK9vHmi6E-1" value="&lt;div&gt;Cliente&lt;br&gt;&lt;/div&gt;&lt;div&gt;: Browser&lt;/div&gt;" style="verticalAlign=top;align=left;spacingTop=8;spacingLeft=2;spacingRight=12;shape=cube;size=10;direction=south;fontStyle=4;html=1;whiteSpace=wrap;" vertex="1" parent="1">
          <mxGeometry x="75" y="540" width="130" height="120" as="geometry" />
        </mxCell>
        <mxCell id="3FPMqVNz-MOyK9vHmi6E-2" value="App Server" style="verticalAlign=top;align=left;spacingTop=8;spacingLeft=2;spacingRight=12;shape=cube;size=10;direction=south;fontStyle=4;html=1;whiteSpace=wrap;" vertex="1" parent="1">
          <mxGeometry x="315" y="325" width="410" height="320" as="geometry" />
        </mxCell>
        <mxCell id="3FPMqVNz-MOyK9vHmi6E-3" value="&lt;div&gt;Funcionário&lt;br&gt;&lt;/div&gt;&lt;div&gt;: Browser&lt;/div&gt;" style="verticalAlign=top;align=left;spacingTop=8;spacingLeft=2;spacingRight=12;shape=cube;size=10;direction=south;fontStyle=4;html=1;whiteSpace=wrap;" vertex="1" parent="1">
          <mxGeometry x="75" y="395" width="130" height="120" as="geometry" />
        </mxCell>
        <mxCell id="3FPMqVNz-MOyK9vHmi6E-4" value="Gestão de estoque" style="shape=module;align=left;spacingLeft=20;align=center;verticalAlign=top;whiteSpace=wrap;html=1;" vertex="1" parent="1">
          <mxGeometry x="550" y="395" width="100" height="50" as="geometry" />
        </mxCell>
        <mxCell id="3FPMqVNz-MOyK9vHmi6E-5" value="Visão de supermercado" style="shape=module;align=left;spacingLeft=20;align=center;verticalAlign=top;whiteSpace=wrap;html=1;" vertex="1" parent="1">
          <mxGeometry x="355" y="395" width="110" height="50" as="geometry" />
        </mxCell>
        <mxCell id="3FPMqVNz-MOyK9vHmi6E-30" style="edgeStyle=orthogonalEdgeStyle;rounded=0;orthogonalLoop=1;jettySize=auto;html=1;curved=1;endArrow=none;endFill=0;dashed=1;exitX=0.79;exitY=1;exitDx=0;exitDy=0;exitPerimeter=0;" edge="1" parent="1" source="3FPMqVNz-MOyK9vHmi6E-6">
          <mxGeometry relative="1" as="geometry">
            <mxPoint x="695.0256410256411" y="685" as="targetPoint" />
          </mxGeometry>
        </mxCell>
        <mxCell id="3FPMqVNz-MOyK9vHmi6E-6" value="API Firebase" style="shape=module;align=left;spacingLeft=20;align=center;verticalAlign=top;whiteSpace=wrap;html=1;" vertex="1" parent="1">
          <mxGeometry x="535" y="575" width="100" height="50" as="geometry" />
        </mxCell>
        <mxCell id="3FPMqVNz-MOyK9vHmi6E-10" value="" style="rounded=0;orthogonalLoop=1;jettySize=auto;html=1;endArrow=halfCircle;endFill=0;endSize=6;strokeWidth=1;sketch=0;exitX=0.304;exitY=0.974;exitDx=0;exitDy=0;exitPerimeter=0;" edge="1" parent="1" source="3FPMqVNz-MOyK9vHmi6E-13">
          <mxGeometry relative="1" as="geometry">
            <mxPoint x="575" y="550" as="sourcePoint" />
            <mxPoint x="575" y="555" as="targetPoint" />
            <Array as="points">
              <mxPoint x="575" y="535" />
            </Array>
          </mxGeometry>
        </mxCell>
        <mxCell id="3FPMqVNz-MOyK9vHmi6E-11" value="" style="rounded=0;orthogonalLoop=1;jettySize=auto;html=1;endArrow=oval;endFill=0;sketch=0;sourcePerimeterSpacing=0;targetPerimeterSpacing=0;endSize=10;" edge="1" parent="1">
          <mxGeometry relative="1" as="geometry">
            <mxPoint x="575" y="575" as="sourcePoint" />
            <mxPoint x="575" y="555" as="targetPoint" />
          </mxGeometry>
        </mxCell>
        <mxCell id="3FPMqVNz-MOyK9vHmi6E-12" value="" style="ellipse;whiteSpace=wrap;html=1;align=center;aspect=fixed;fillColor=none;strokeColor=none;resizable=0;perimeter=centerPerimeter;rotatable=0;allowArrows=0;points=[];outlineConnect=1;" vertex="1" parent="1">
          <mxGeometry x="550" y="545" width="10" height="10" as="geometry" />
        </mxCell>
        <mxCell id="3FPMqVNz-MOyK9vHmi6E-13" value="Gestão de pedido" style="shape=module;align=left;spacingLeft=20;align=center;verticalAlign=top;whiteSpace=wrap;html=1;" vertex="1" parent="1">
          <mxGeometry x="545" y="475" width="100" height="50" as="geometry" />
        </mxCell>
        <mxCell id="3FPMqVNz-MOyK9vHmi6E-14" value="&lt;div&gt;Webhook&lt;/div&gt;&lt;div&gt;WhatsApp&lt;br&gt;&lt;/div&gt;" style="shape=module;align=left;spacingLeft=20;align=center;verticalAlign=top;whiteSpace=wrap;html=1;" vertex="1" parent="1">
          <mxGeometry x="355" y="575" width="100" height="50" as="geometry" />
        </mxCell>
        <mxCell id="3FPMqVNz-MOyK9vHmi6E-17" value="" style="ellipse;whiteSpace=wrap;html=1;align=center;aspect=fixed;fillColor=none;strokeColor=none;resizable=0;perimeter=centerPerimeter;rotatable=0;allowArrows=0;points=[];outlineConnect=1;" vertex="1" parent="1">
          <mxGeometry x="500" y="575" width="10" height="10" as="geometry" />
        </mxCell>
        <mxCell id="3FPMqVNz-MOyK9vHmi6E-18" value="" style="rounded=0;orthogonalLoop=1;jettySize=auto;html=1;endArrow=oval;endFill=0;sketch=0;sourcePerimeterSpacing=0;targetPerimeterSpacing=0;endSize=10;" edge="1" parent="1">
          <mxGeometry relative="1" as="geometry">
            <mxPoint x="425" y="575" as="sourcePoint" />
            <mxPoint x="425" y="555" as="targetPoint" />
          </mxGeometry>
        </mxCell>
        <mxCell id="3FPMqVNz-MOyK9vHmi6E-19" value="Visão de compras" style="shape=module;align=left;spacingLeft=20;align=center;verticalAlign=top;whiteSpace=wrap;html=1;" vertex="1" parent="1">
          <mxGeometry x="355" y="460" width="110" height="50" as="geometry" />
        </mxCell>
        <mxCell id="3FPMqVNz-MOyK9vHmi6E-21" value="" style="rounded=0;orthogonalLoop=1;jettySize=auto;html=1;endArrow=halfCircle;endFill=0;endSize=6;strokeWidth=1;sketch=0;exitX=0.304;exitY=0.974;exitDx=0;exitDy=0;exitPerimeter=0;" edge="1" parent="1">
          <mxGeometry relative="1" as="geometry">
            <mxPoint x="425" y="510" as="sourcePoint" />
            <mxPoint x="425" y="555" as="targetPoint" />
            <Array as="points">
              <mxPoint x="425" y="521" />
            </Array>
          </mxGeometry>
        </mxCell>
        <mxCell id="3FPMqVNz-MOyK9vHmi6E-22" value="" style="rounded=0;orthogonalLoop=1;jettySize=auto;html=1;endArrow=oval;endFill=0;sketch=0;sourcePerimeterSpacing=0;targetPerimeterSpacing=0;endSize=10;" edge="1" parent="1">
          <mxGeometry relative="1" as="geometry">
            <mxPoint x="455" y="600" as="sourcePoint" />
            <mxPoint x="480" y="600" as="targetPoint" />
          </mxGeometry>
        </mxCell>
        <mxCell id="3FPMqVNz-MOyK9vHmi6E-23" value="" style="rounded=0;orthogonalLoop=1;jettySize=auto;html=1;endArrow=halfCircle;endFill=0;endSize=6;strokeWidth=1;sketch=0;exitX=1;exitY=0.8;exitDx=0;exitDy=0;exitPerimeter=0;jumpStyle=arc;" edge="1" parent="1" source="3FPMqVNz-MOyK9vHmi6E-5">
          <mxGeometry relative="1" as="geometry">
            <mxPoint x="475" y="415" as="sourcePoint" />
            <mxPoint x="480" y="600" as="targetPoint" />
            <Array as="points">
              <mxPoint x="480" y="435" />
            </Array>
          </mxGeometry>
        </mxCell>
        <mxCell id="3FPMqVNz-MOyK9vHmi6E-24" value="" style="rounded=0;orthogonalLoop=1;jettySize=auto;html=1;endArrow=oval;endFill=0;sketch=0;sourcePerimeterSpacing=0;targetPerimeterSpacing=0;endSize=10;exitX=0.2;exitY=1.012;exitDx=0;exitDy=0;exitPerimeter=0;" edge="1" parent="1" source="3FPMqVNz-MOyK9vHmi6E-4">
          <mxGeometry relative="1" as="geometry">
            <mxPoint x="575" y="445" as="sourcePoint" />
            <mxPoint x="570" y="455" as="targetPoint" />
          </mxGeometry>
        </mxCell>
        <mxCell id="3FPMqVNz-MOyK9vHmi6E-25" value="" style="rounded=0;orthogonalLoop=1;jettySize=auto;html=1;endArrow=oval;endFill=0;sketch=0;sourcePerimeterSpacing=0;targetPerimeterSpacing=0;endSize=10;exitX=0.099;exitY=0.904;exitDx=0;exitDy=0;exitPerimeter=0;" edge="1" parent="1">
          <mxGeometry relative="1" as="geometry">
            <mxPoint x="560" y="420.06" as="sourcePoint" />
            <mxPoint x="535" y="419.86" as="targetPoint" />
          </mxGeometry>
        </mxCell>
        <mxCell id="3FPMqVNz-MOyK9vHmi6E-26" value="" style="rounded=0;orthogonalLoop=1;jettySize=auto;html=1;endArrow=halfCircle;endFill=0;endSize=6;strokeWidth=1;sketch=0;exitX=1;exitY=0.5;exitDx=0;exitDy=0;" edge="1" parent="1" source="3FPMqVNz-MOyK9vHmi6E-5">
          <mxGeometry relative="1" as="geometry">
            <mxPoint x="456.79999999999995" y="420.28" as="sourcePoint" />
            <mxPoint x="535" y="419.73" as="targetPoint" />
            <Array as="points">
              <mxPoint x="495" y="420.23" />
            </Array>
          </mxGeometry>
        </mxCell>
        <mxCell id="3FPMqVNz-MOyK9vHmi6E-28" value="" style="rounded=0;orthogonalLoop=1;jettySize=auto;html=1;endArrow=halfCircle;endFill=0;endSize=6;strokeWidth=1;sketch=0;jumpStyle=arc;" edge="1" parent="1">
          <mxGeometry relative="1" as="geometry">
            <mxPoint x="450" y="460" as="sourcePoint" />
            <mxPoint x="570" y="455" as="targetPoint" />
            <Array as="points">
              <mxPoint x="450" y="455" />
            </Array>
          </mxGeometry>
        </mxCell>
        <mxCell id="3FPMqVNz-MOyK9vHmi6E-31" value="Firebase" style="verticalAlign=top;align=left;spacingTop=8;spacingLeft=2;spacingRight=12;shape=cube;size=10;direction=south;fontStyle=4;html=1;whiteSpace=wrap;" vertex="1" parent="1">
          <mxGeometry x="510" y="695" width="90" height="80" as="geometry" />
        </mxCell>
        <mxCell id="3FPMqVNz-MOyK9vHmi6E-32" style="edgeStyle=orthogonalEdgeStyle;rounded=0;orthogonalLoop=1;jettySize=auto;html=1;entryX=0.023;entryY=0.162;entryDx=0;entryDy=0;entryPerimeter=0;dashed=1;endArrow=open;endFill=0;" edge="1" parent="1" source="3FPMqVNz-MOyK9vHmi6E-6" target="3FPMqVNz-MOyK9vHmi6E-31">
          <mxGeometry relative="1" as="geometry" />
        </mxCell>
        <mxCell id="3FPMqVNz-MOyK9vHmi6E-34" style="edgeStyle=orthogonalEdgeStyle;rounded=0;orthogonalLoop=1;jettySize=auto;html=1;entryX=0.139;entryY=0.491;entryDx=0;entryDy=0;entryPerimeter=0;dashed=1;endArrow=open;endFill=0;" edge="1" parent="1" source="3FPMqVNz-MOyK9vHmi6E-1" target="3FPMqVNz-MOyK9vHmi6E-14">
          <mxGeometry relative="1" as="geometry" />
        </mxCell>
        <mxCell id="3FPMqVNz-MOyK9vHmi6E-35" style="edgeStyle=orthogonalEdgeStyle;rounded=0;orthogonalLoop=1;jettySize=auto;html=1;dashed=1;endArrow=open;endFill=0;" edge="1" parent="1">
          <mxGeometry relative="1" as="geometry">
            <mxPoint x="205" y="419.68" as="sourcePoint" />
            <mxPoint x="360" y="420" as="targetPoint" />
          </mxGeometry>
        </mxCell>
        <mxCell id="3FPMqVNz-MOyK9vHmi6E-36" style="edgeStyle=orthogonalEdgeStyle;rounded=0;orthogonalLoop=1;jettySize=auto;html=1;entryX=0.009;entryY=0.494;entryDx=0;entryDy=0;entryPerimeter=0;dashed=1;endArrow=open;endFill=0;" edge="1" parent="1" target="3FPMqVNz-MOyK9vHmi6E-19">
          <mxGeometry relative="1" as="geometry">
            <mxPoint x="206" y="575" as="sourcePoint" />
            <mxPoint x="370" y="575" as="targetPoint" />
          </mxGeometry>
        </mxCell>
        <mxCell id="3FPMqVNz-MOyK9vHmi6E-37" value="&lt;div style=&quot;font-size: 9px;&quot;&gt;&lt;font style=&quot;font-size: 9px;&quot;&gt;Camada de persistência&amp;nbsp;&lt;/font&gt;&lt;/div&gt;&lt;div style=&quot;font-size: 9px;&quot;&gt;&lt;font style=&quot;font-size: 9px;&quot;&gt;para consumir e enviar&amp;nbsp;&lt;/font&gt;&lt;/div&gt;&lt;div style=&quot;font-size: 9px;&quot;&gt;&lt;font style=&quot;font-size: 9px;&quot;&gt;dados ao BD&lt;/font&gt;&lt;/div&gt;" style="shape=note;whiteSpace=wrap;html=1;backgroundOutline=1;darkOpacity=0.05;" vertex="1" parent="1">
          <mxGeometry x="630" y="685" width="80" height="85" as="geometry" />
        </mxCell>
      </root>
    </mxGraphModel>
  </diagram>
</mxfile>
